{
	"asset":{
		"copyright":"tzbd",
		"generator":"Khronos glTF Blender I/O v4.5.49",
		"version":"2.0"
	},
	"scene":0,
	"scenes":[
		{
			"name":"Scene",
			"nodes":[
				0,
				1
			]
		}
	],
	"nodes":[
		{
			"mesh":0,
			"name":"cupboard"
		},
		{
			"mesh":1,
			"name":"bookBundle",
			"rotation":[
				0.5,
				0.5,
				-0.5,
				0.5
			],
			"scale":[
				0.09256500005722046,
				0.09256500005722046,
				0.09256500005722046
			],
			"translation":[
				-0.5988702774047852,
				2.0677995681762695,
				0.14748024940490723
			]
		}
	],
	"materials":[
		{
			"doubleSided":true,
			"name":"gradient-palette",
			"pbrMetallicRoughness":{
				"baseColorTexture":{
					"index":0
				},
				"metallicFactor":0
			}
		}
	],
	"meshes":[
		{
			"name":"mesh",
			"primitives":[
				{
					"attributes":{
						"POSITION":0,
						"NORMAL":1,
						"TEXCOORD_0":2
					},
					"indices":3,
					"material":0
				}
			]
		},
		{
			"name":"Plane",
			"primitives":[
				{
					"attributes":{
						"POSITION":4,
						"NORMAL":5,
						"TEXCOORD_0":6
					},
					"indices":7,
					"material":0
				}
			]
		}
	],
	"textures":[
		{
			"sampler":0,
			"source":0
		}
	],
	"images":[
		{
			"mimeType":"image/png",
			"name":"small-gradient-palette",
			"uri":"small-gradient-palette.png"
		}
	],
	"accessors":[
		{
			"bufferView":0,
			"componentType":5126,
			"count":184,
			"max":[
				0.699999988079071,
				2.450000047683716,
				0.3499999940395355
			],
			"min":[
				-0.699999988079071,
				0,
				-0.015153348445892334
			],
			"type":"VEC3"
		},
		{
			"bufferView":1,
			"componentType":5126,
			"count":184,
			"type":"VEC3"
		},
		{
			"bufferView":2,
			"componentType":5126,
			"count":184,
			"type":"VEC2"
		},
		{
			"bufferView":3,
			"componentType":5123,
			"count":1032,
			"type":"SCALAR"
		},
		{
			"bufferView":4,
			"componentType":5126,
			"count":20856,
			"max":[
				1,
				13.052313804626465,
				14.900651931762695
			],
			"min":[
				-1.856278657913208,
				0.010356664657592773,
				-3.0550246238708496
			],
			"type":"VEC3"
		},
		{
			"bufferView":5,
			"componentType":5126,
			"count":20856,
			"type":"VEC3"
		},
		{
			"bufferView":6,
			"componentType":5126,
			"count":20856,
			"type":"VEC2"
		},
		{
			"bufferView":7,
			"componentType":5123,
			"count":77736,
			"type":"SCALAR"
		}
	],
	"bufferViews":[
		{
			"buffer":0,
			"byteLength":2208,
			"byteOffset":0,
			"target":34962
		},
		{
			"buffer":0,
			"byteLength":2208,
			"byteOffset":2208,
			"target":34962
		},
		{
			"buffer":0,
			"byteLength":1472,
			"byteOffset":4416,
			"target":34962
		},
		{
			"buffer":0,
			"byteLength":2064,
			"byteOffset":5888,
			"target":34963
		},
		{
			"buffer":0,
			"byteLength":250272,
			"byteOffset":7952,
			"target":34962
		},
		{
			"buffer":0,
			"byteLength":250272,
			"byteOffset":258224,
			"target":34962
		},
		{
			"buffer":0,
			"byteLength":166848,
			"byteOffset":508496,
			"target":34962
		},
		{
			"buffer":0,
			"byteLength":155472,
			"byteOffset":675344,
			"target":34963
		}
	],
	"samplers":[
		{
			"magFilter":9729,
			"minFilter":9987
		}
	],
	"buffers":[
		{
			"byteLength":830816,
			"uri":"cupboard.bin"
		}
	]
}
