{
	"asset":{
		"generator":"Khronos glTF Blender I/O v4.5.49",
		"version":"2.0"
	},
	"extensionsUsed":[
		"KHR_materials_clearcoat"
	],
	"scene":0,
	"scenes":[
		{
			"name":"Scene",
			"nodes":[
				0
			]
		}
	],
	"nodes":[
		{
			"mesh":0,
			"name":"main_structure.001",
			"rotation":[
				0,
				0.060378383845090866,
				0,
				0.9981755614280701
			],
			"scale":[
				2.7684311866760254,
				2.7684311866760254,
				2.7684311866760254
			]
		}
	],
	"materials":[
		{
			"doubleSided":true,
			"name":"gradient-palette",
			"pbrMetallicRoughness":{
				"baseColorTexture":{
					"index":0
				},
				"metallicFactor":0
			}
		},
		{
			"doubleSided":true,
			"extensions":{
				"KHR_materials_clearcoat":{
					"clearcoatFactor":0.23990498483181
				}
			},
			"name":"baked_floor",
			"pbrMetallicRoughness":{
				"baseColorTexture":{
					"index":1
				},
				"metallicFactor":0
			}
		}
	],
	"meshes":[
		{
			"name":"room",
			"primitives":[
				{
					"attributes":{
						"POSITION":0,
						"NORMAL":1,
						"TEXCOORD_0":2
					},
					"indices":3,
					"material":0
				},
				{
					"attributes":{
						"POSITION":4,
						"NORMAL":5,
						"TEXCOORD_0":6
					},
					"indices":7,
					"material":1
				}
			]
		}
	],
	"textures":[
		{
			"sampler":0,
			"source":0
		},
		{
			"sampler":0,
			"source":1
		}
	],
	"images":[
		{
			"mimeType":"image/png",
			"name":"gradient-palette",
			"uri":"gradient-palette.png"
		},
		{
			"mimeType":"image/png",
			"name":"floor_tex",
			"uri":"floor_tex.png"
		}
	],
	"accessors":[
		{
			"bufferView":0,
			"componentType":5126,
			"count":13471,
			"max":[
				4.0729451179504395,
				1.569421410560608,
				2.3809664249420166
			],
			"min":[
				-1.2450066804885864,
				-1.325082540512085,
				-2.507011890411377
			],
			"type":"VEC3"
		},
		{
			"bufferView":1,
			"componentType":5126,
			"count":13471,
			"type":"VEC3"
		},
		{
			"bufferView":2,
			"componentType":5126,
			"count":13471,
			"type":"VEC2"
		},
		{
			"bufferView":3,
			"componentType":5123,
			"count":25917,
			"type":"SCALAR"
		},
		{
			"bufferView":4,
			"componentType":5126,
			"count":73,
			"max":[
				3.9982757568359375,
				0.36121538281440735,
				2.252790927886963
			],
			"min":[
				-1.1826574802398682,
				-0.02832636795938015,
				-2.432516574859619
			],
			"type":"VEC3"
		},
		{
			"bufferView":5,
			"componentType":5126,
			"count":73,
			"type":"VEC3"
		},
		{
			"bufferView":6,
			"componentType":5126,
			"count":73,
			"type":"VEC2"
		},
		{
			"bufferView":7,
			"componentType":5123,
			"count":159,
			"type":"SCALAR"
		}
	],
	"bufferViews":[
		{
			"buffer":0,
			"byteLength":161652,
			"byteOffset":0,
			"target":34962
		},
		{
			"buffer":0,
			"byteLength":161652,
			"byteOffset":161652,
			"target":34962
		},
		{
			"buffer":0,
			"byteLength":107768,
			"byteOffset":323304,
			"target":34962
		},
		{
			"buffer":0,
			"byteLength":51834,
			"byteOffset":431072,
			"target":34963
		},
		{
			"buffer":0,
			"byteLength":876,
			"byteOffset":482908,
			"target":34962
		},
		{
			"buffer":0,
			"byteLength":876,
			"byteOffset":483784,
			"target":34962
		},
		{
			"buffer":0,
			"byteLength":584,
			"byteOffset":484660,
			"target":34962
		},
		{
			"buffer":0,
			"byteLength":318,
			"byteOffset":485244,
			"target":34963
		}
	],
	"samplers":[
		{
			"magFilter":9729,
			"minFilter":9987
		}
	],
	"buffers":[
		{
			"byteLength":485564,
			"uri":"new_main_room.bin"
		}
	]
}
