{
	"asset":{
		"copyright":"tzbd",
		"generator":"Khronos glTF Blender I/O v4.5.49",
		"version":"2.0"
	},
	"scene":0,
	"scenes":[
		{
			"name":"Scene",
			"nodes":[
				0,
				1
			]
		}
	],
	"nodes":[
		{
			"mesh":0,
			"name":"summoning_platform"
		},
		{
			"mesh":1,
			"name":"summoning_platform-colonly"
		}
	],
	"materials":[
		{
			"doubleSided":true,
			"name":"gradient-palette",
			"pbrMetallicRoughness":{
				"baseColorTexture":{
					"index":0
				},
				"metallicFactor":0
			}
		}
	],
	"meshes":[
		{
			"name":"summoning_platform_mesh",
			"primitives":[
				{
					"attributes":{
						"POSITION":0,
						"NORMAL":1,
						"TEXCOORD_0":2
					},
					"indices":3,
					"material":0
				}
			]
		},
		{
			"name":"summoning_platform_collision_mesh",
			"primitives":[
				{
					"attributes":{
						"POSITION":4,
						"NORMAL":5,
						"TEXCOORD_0":6
					},
					"indices":7,
					"material":0
				}
			]
		}
	],
	"textures":[
		{
			"sampler":0,
			"source":0
		}
	],
	"images":[
		{
			"mimeType":"image/png",
			"name":"small-gradient-palette",
			"uri":"small-gradient-palette.png"
		}
	],
	"accessors":[
		{
			"bufferView":0,
			"componentType":5126,
			"count":2768,
			"max":[
				4.821634769439697,
				1.0666465759277344,
				2.9108808040618896
			],
			"min":[
				-2.9108808040618896,
				-0.013338327407836914,
				-2.9108808040618896
			],
			"type":"VEC3"
		},
		{
			"bufferView":1,
			"componentType":5126,
			"count":2768,
			"type":"VEC3"
		},
		{
			"bufferView":2,
			"componentType":5126,
			"count":2768,
			"type":"VEC2"
		},
		{
			"bufferView":3,
			"componentType":5123,
			"count":6168,
			"type":"SCALAR"
		},
		{
			"bufferView":4,
			"componentType":5126,
			"count":72,
			"max":[
				4.809648036956787,
				0.7639193534851074,
				3.070096254348755
			],
			"min":[
				-3.0656182765960693,
				-0.022437989711761475,
				-3.0701920986175537
			],
			"type":"VEC3"
		},
		{
			"bufferView":5,
			"componentType":5126,
			"count":72,
			"type":"VEC3"
		},
		{
			"bufferView":6,
			"componentType":5126,
			"count":72,
			"type":"VEC2"
		},
		{
			"bufferView":7,
			"componentType":5123,
			"count":126,
			"type":"SCALAR"
		}
	],
	"bufferViews":[
		{
			"buffer":0,
			"byteLength":33216,
			"byteOffset":0,
			"target":34962
		},
		{
			"buffer":0,
			"byteLength":33216,
			"byteOffset":33216,
			"target":34962
		},
		{
			"buffer":0,
			"byteLength":22144,
			"byteOffset":66432,
			"target":34962
		},
		{
			"buffer":0,
			"byteLength":12336,
			"byteOffset":88576,
			"target":34963
		},
		{
			"buffer":0,
			"byteLength":864,
			"byteOffset":100912,
			"target":34962
		},
		{
			"buffer":0,
			"byteLength":864,
			"byteOffset":101776,
			"target":34962
		},
		{
			"buffer":0,
			"byteLength":576,
			"byteOffset":102640,
			"target":34962
		},
		{
			"buffer":0,
			"byteLength":252,
			"byteOffset":103216,
			"target":34963
		}
	],
	"samplers":[
		{
			"magFilter":9729,
			"minFilter":9987
		}
	],
	"buffers":[
		{
			"byteLength":103468,
			"uri":"new_summon_platform.bin"
		}
	]
}
