{
	"asset":{
		"generator":"Khronos glTF Blender I/O v4.5.49",
		"version":"2.0"
	},
	"scene":0,
	"scenes":[
		{
			"name":"Scene",
			"nodes":[
				0,
				1,
				2,
				3,
				4,
				5,
				6,
				7,
				8,
				9,
				10,
				11,
				12,
				13,
				14,
				15,
				16,
				17,
				18,
				19
			]
		}
	],
	"nodes":[
		{
			"mesh":0,
			"name":"wall1",
			"rotation":[
				0,
				0.060378383845090866,
				0,
				0.9981755614280701
			],
			"scale":[
				2.7684311866760254,
				2.7684311866760254,
				2.7684311866760254
			],
			"translation":[
				-1.811779499053955,
				1.7966289520263672,
				3.2064316272735596
			]
		},
		{
			"mesh":1,
			"name":"wall2",
			"rotation":[
				0,
				0.060378383845090866,
				0,
				0.9981755614280701
			],
			"scale":[
				2.7684311866760254,
				2.7684311866760254,
				2.7684311866760254
			],
			"translation":[
				-0.010032176971435547,
				1.8164238929748535,
				4.690295696258545
			]
		},
		{
			"mesh":2,
			"name":"wall3",
			"rotation":[
				0,
				0.060378383845090866,
				0,
				0.9981755614280701
			],
			"scale":[
				2.7684311866760254,
				2.7684311866760254,
				2.7684311866760254
			],
			"translation":[
				2.733128547668457,
				1.830407977104187,
				4.874015808105469
			]
		},
		{
			"mesh":3,
			"name":"wall4",
			"rotation":[
				0,
				0.060378383845090866,
				0,
				0.9981755614280701
			],
			"scale":[
				2.7684311866760254,
				2.7684311866760254,
				2.7684311866760254
			],
			"translation":[
				5.069736003875732,
				0.7875723838806152,
				4.713059425354004
			]
		},
		{
			"mesh":4,
			"name":"wall5",
			"rotation":[
				0,
				0.060378383845090866,
				0,
				0.9981755614280701
			],
			"scale":[
				2.7684311866760254,
				2.7684311866760254,
				2.7684311866760254
			],
			"translation":[
				6.353728771209717,
				2.181823253631592,
				2.324777364730835
			]
		},
		{
			"mesh":5,
			"name":"wall6",
			"rotation":[
				0,
				0.060378383845090866,
				0,
				0.9981755614280701
			],
			"scale":[
				2.7684311866760254,
				2.7684311866760254,
				2.7684311866760254
			],
			"translation":[
				7.158099174499512,
				2.830561637878418,
				4.256418228149414
			]
		},
		{
			"mesh":6,
			"name":"wall7",
			"rotation":[
				0,
				0.060378383845090866,
				0,
				0.9981755614280701
			],
			"scale":[
				2.7684311866760254,
				2.7684311866760254,
				2.7684311866760254
			],
			"translation":[
				8.916486740112305,
				2.8095526695251465,
				4.815568447113037
			]
		},
		{
			"mesh":7,
			"name":"wall8",
			"rotation":[
				0,
				0.060378383845090866,
				0,
				0.9981755614280701
			],
			"scale":[
				2.7684311866760254,
				2.7684311866760254,
				2.7684311866760254
			],
			"translation":[
				10.490796089172363,
				2.838162899017334,
				3.4446911811828613
			]
		},
		{
			"mesh":8,
			"name":"wall9",
			"rotation":[
				0,
				0.060378383845090866,
				0,
				0.9981755614280701
			],
			"scale":[
				2.7684311866760254,
				2.7684311866760254,
				2.7684311866760254
			],
			"translation":[
				9.943532943725586,
				1.7794451713562012,
				1.5020313262939453
			]
		},
		{
			"mesh":9,
			"name":"wall10",
			"rotation":[
				0,
				0.060378383845090866,
				0,
				0.9981755614280701
			],
			"scale":[
				2.7684311866760254,
				2.7684311866760254,
				2.7684311866760254
			],
			"translation":[
				8.224471092224121,
				0.6210232377052307,
				-0.7530267238616943
			]
		},
		{
			"mesh":10,
			"name":"wall11",
			"rotation":[
				0,
				0.060378383845090866,
				0,
				0.9981755614280701
			],
			"scale":[
				2.7684311866760254,
				2.7684311866760254,
				2.7684311866760254
			],
			"translation":[
				10.16027545928955,
				1.6980899572372437,
				-3.498812675476074
			]
		},
		{
			"mesh":11,
			"name":"wall12",
			"rotation":[
				0,
				0.060378383845090866,
				0,
				0.9981755614280701
			],
			"scale":[
				2.7684311866760254,
				2.7684311866760254,
				2.7684311866760254
			],
			"translation":[
				10.163219451904297,
				1.864608645439148,
				-5.894160270690918
			]
		},
		{
			"mesh":12,
			"name":"wall13",
			"rotation":[
				0,
				0.060378383845090866,
				0,
				0.9981755614280701
			],
			"scale":[
				2.7684311866760254,
				2.7684311866760254,
				2.7684311866760254
			],
			"translation":[
				7.18513822555542,
				1.8647279739379883,
				-7.679538726806641
			]
		},
		{
			"mesh":13,
			"name":"wall14",
			"rotation":[
				0,
				0.060378383845090866,
				0,
				0.9981755614280701
			],
			"scale":[
				2.7684311866760254,
				2.7684311866760254,
				2.7684311866760254
			],
			"translation":[
				5.311601161956787,
				1.698089838027954,
				-6.541335105895996
			]
		},
		{
			"mesh":14,
			"name":"wall15",
			"rotation":[
				0,
				0.060378383845090866,
				0,
				0.9981755614280701
			],
			"scale":[
				2.7684311866760254,
				2.7684311866760254,
				2.7684311866760254
			],
			"translation":[
				4.245149612426758,
				1.4931366443634033,
				-4.728547096252441
			]
		},
		{
			"mesh":15,
			"name":"wall16",
			"rotation":[
				0,
				0.060378383845090866,
				0,
				0.9981755614280701
			],
			"scale":[
				2.7684311866760254,
				2.7684311866760254,
				2.7684311866760254
			],
			"translation":[
				2.757319450378418,
				1.8304075002670288,
				-4.878818511962891
			]
		},
		{
			"mesh":16,
			"name":"wall17",
			"rotation":[
				0,
				0.060378383845090866,
				0,
				0.9981755614280701
			],
			"scale":[
				2.7684311866760254,
				2.7684311866760254,
				2.7684311866760254
			],
			"translation":[
				0.023877322673797607,
				1.816424012184143,
				-4.712035179138184
			]
		},
		{
			"mesh":17,
			"name":"wall18",
			"rotation":[
				0,
				0.060378383845090866,
				0,
				0.9981755614280701
			],
			"scale":[
				2.7684311866760254,
				2.7684311866760254,
				2.7684311866760254
			],
			"translation":[
				-1.8155747652053833,
				1.7966294288635254,
				-3.2018966674804688
			]
		},
		{
			"mesh":18,
			"name":"wall19",
			"rotation":[
				0,
				0.060378383845090866,
				0,
				0.9981755614280701
			],
			"scale":[
				2.7684311866760254,
				2.7684311866760254,
				2.7684311866760254
			],
			"translation":[
				-3.0889618396759033,
				1.8164238929748535,
				-1.1835917234420776
			]
		},
		{
			"mesh":19,
			"name":"wall20",
			"rotation":[
				0,
				0.060378383845090866,
				0,
				0.9981755614280701
			],
			"scale":[
				2.7684311866760254,
				2.7684311866760254,
				2.7684311866760254
			],
			"translation":[
				-3.0910582542419434,
				1.8164238929748535,
				1.242910623550415
			]
		}
	],
	"materials":[
		{
			"doubleSided":true,
			"name":"gradient-palette",
			"pbrMetallicRoughness":{
				"baseColorTexture":{
					"index":0
				},
				"metallicFactor":0
			}
		}
	],
	"meshes":[
		{
			"name":"room.004",
			"primitives":[
				{
					"attributes":{
						"POSITION":0,
						"NORMAL":1,
						"TEXCOORD_0":2
					},
					"indices":3,
					"material":0
				}
			]
		},
		{
			"name":"room.005",
			"primitives":[
				{
					"attributes":{
						"POSITION":4,
						"NORMAL":5,
						"TEXCOORD_0":6
					},
					"indices":7,
					"material":0
				}
			]
		},
		{
			"name":"room.006",
			"primitives":[
				{
					"attributes":{
						"POSITION":8,
						"NORMAL":9,
						"TEXCOORD_0":10
					},
					"indices":11,
					"material":0
				}
			]
		},
		{
			"name":"room.007",
			"primitives":[
				{
					"attributes":{
						"POSITION":12,
						"NORMAL":13,
						"TEXCOORD_0":14
					},
					"indices":15,
					"material":0
				}
			]
		},
		{
			"name":"room.010",
			"primitives":[
				{
					"attributes":{
						"POSITION":16,
						"NORMAL":17,
						"TEXCOORD_0":18
					},
					"indices":19,
					"material":0
				}
			]
		},
		{
			"name":"room.011",
			"primitives":[
				{
					"attributes":{
						"POSITION":20,
						"NORMAL":21,
						"TEXCOORD_0":22
					},
					"indices":23,
					"material":0
				}
			]
		},
		{
			"name":"room.013",
			"primitives":[
				{
					"attributes":{
						"POSITION":24,
						"NORMAL":25,
						"TEXCOORD_0":26
					},
					"indices":27,
					"material":0
				}
			]
		},
		{
			"name":"room.014",
			"primitives":[
				{
					"attributes":{
						"POSITION":28,
						"NORMAL":29,
						"TEXCOORD_0":30
					},
					"indices":31,
					"material":0
				}
			]
		},
		{
			"name":"room.015",
			"primitives":[
				{
					"attributes":{
						"POSITION":32,
						"NORMAL":33,
						"TEXCOORD_0":34
					},
					"indices":35,
					"material":0
				}
			]
		},
		{
			"name":"room.016",
			"primitives":[
				{
					"attributes":{
						"POSITION":36,
						"NORMAL":37,
						"TEXCOORD_0":38
					},
					"indices":39,
					"material":0
				}
			]
		},
		{
			"name":"room.017",
			"primitives":[
				{
					"attributes":{
						"POSITION":40,
						"NORMAL":41,
						"TEXCOORD_0":42
					},
					"indices":43,
					"material":0
				}
			]
		},
		{
			"name":"room.018",
			"primitives":[
				{
					"attributes":{
						"POSITION":44,
						"NORMAL":45,
						"TEXCOORD_0":46
					},
					"indices":47,
					"material":0
				}
			]
		},
		{
			"name":"room.019",
			"primitives":[
				{
					"attributes":{
						"POSITION":48,
						"NORMAL":49,
						"TEXCOORD_0":50
					},
					"indices":51,
					"material":0
				}
			]
		},
		{
			"name":"room.020",
			"primitives":[
				{
					"attributes":{
						"POSITION":52,
						"NORMAL":53,
						"TEXCOORD_0":54
					},
					"indices":55,
					"material":0
				}
			]
		},
		{
			"name":"room.021",
			"primitives":[
				{
					"attributes":{
						"POSITION":56,
						"NORMAL":57,
						"TEXCOORD_0":58
					},
					"indices":59,
					"material":0
				}
			]
		},
		{
			"name":"room.022",
			"primitives":[
				{
					"attributes":{
						"POSITION":60,
						"NORMAL":61,
						"TEXCOORD_0":62
					},
					"indices":63,
					"material":0
				}
			]
		},
		{
			"name":"room.023",
			"primitives":[
				{
					"attributes":{
						"POSITION":64,
						"NORMAL":65,
						"TEXCOORD_0":66
					},
					"indices":67,
					"material":0
				}
			]
		},
		{
			"name":"room.024",
			"primitives":[
				{
					"attributes":{
						"POSITION":68,
						"NORMAL":69,
						"TEXCOORD_0":70
					},
					"indices":71,
					"material":0
				}
			]
		},
		{
			"name":"room.025",
			"primitives":[
				{
					"attributes":{
						"POSITION":72,
						"NORMAL":73,
						"TEXCOORD_0":74
					},
					"indices":75,
					"material":0
				}
			]
		},
		{
			"name":"room.002",
			"primitives":[
				{
					"attributes":{
						"POSITION":76,
						"NORMAL":77,
						"TEXCOORD_0":78
					},
					"indices":79,
					"material":0
				}
			]
		}
	],
	"textures":[
		{
			"sampler":0,
			"source":0
		}
	],
	"images":[
		{
			"mimeType":"image/png",
			"name":"gradient-palette",
			"uri":"gradient-palette.png"
		}
	],
	"accessors":[
		{
			"bufferView":0,
			"componentType":5126,
			"count":452,
			"max":[
				0.3392442464828491,
				0.43467599153518677,
				0.42944514751434326
			],
			"min":[
				-0.34351104497909546,
				-0.6787161827087402,
				-0.4435824155807495
			],
			"type":"VEC3"
		},
		{
			"bufferView":1,
			"componentType":5126,
			"count":452,
			"type":"VEC3"
		},
		{
			"bufferView":2,
			"componentType":5126,
			"count":452,
			"type":"VEC2"
		},
		{
			"bufferView":3,
			"componentType":5123,
			"count":666,
			"type":"SCALAR"
		},
		{
			"bufferView":4,
			"componentType":5126,
			"count":360,
			"max":[
				0.4112514853477478,
				0.42752575874328613,
				0.24152874946594238
			],
			"min":[
				-0.40838223695755005,
				-0.6858664155006409,
				-0.22613835334777832
			],
			"type":"VEC3"
		},
		{
			"bufferView":5,
			"componentType":5126,
			"count":360,
			"type":"VEC3"
		},
		{
			"bufferView":6,
			"componentType":5126,
			"count":360,
			"type":"VEC2"
		},
		{
			"bufferView":7,
			"componentType":5123,
			"count":750,
			"type":"SCALAR"
		},
		{
			"bufferView":8,
			"componentType":5126,
			"count":552,
			"max":[
				0.3585965037345886,
				0.4224745035171509,
				0.08348166942596436
			],
			"min":[
				-0.5788000226020813,
				-0.6909176707267761,
				-0.1610039472579956
			],
			"type":"VEC3"
		},
		{
			"bufferView":9,
			"componentType":5126,
			"count":552,
			"type":"VEC3"
		},
		{
			"bufferView":10,
			"componentType":5126,
			"count":552,
			"type":"VEC2"
		},
		{
			"bufferView":11,
			"componentType":5123,
			"count":1020,
			"type":"SCALAR"
		},
		{
			"bufferView":12,
			"componentType":5126,
			"count":1692,
			"max":[
				0.568766713142395,
				0.799162745475769,
				0.47021520137786865
			],
			"min":[
				-0.697581946849823,
				-0.3604983985424042,
				-0.5597864389419556
			],
			"type":"VEC3"
		},
		{
			"bufferView":13,
			"componentType":5126,
			"count":1692,
			"type":"VEC3"
		},
		{
			"bufferView":14,
			"componentType":5126,
			"count":1692,
			"type":"VEC2"
		},
		{
			"bufferView":15,
			"componentType":5123,
			"count":2862,
			"type":"SCALAR"
		},
		{
			"bufferView":16,
			"componentType":5126,
			"count":374,
			"max":[
				0.35057950019836426,
				0.6567532420158386,
				0.39006710052490234
			],
			"min":[
				-0.3108713626861572,
				-0.8178542852401733,
				-0.5527139902114868
			],
			"type":"VEC3"
		},
		{
			"bufferView":17,
			"componentType":5126,
			"count":374,
			"type":"VEC3"
		},
		{
			"bufferView":18,
			"componentType":5126,
			"count":374,
			"type":"VEC2"
		},
		{
			"bufferView":19,
			"componentType":5123,
			"count":696,
			"type":"SCALAR"
		},
		{
			"bufferView":20,
			"componentType":5126,
			"count":566,
			"max":[
				0.2644221782684326,
				0.4224189519882202,
				0.31708502769470215
			],
			"min":[
				-0.3341970443725586,
				-0.6858670115470886,
				-0.5022175312042236
			],
			"type":"VEC3"
		},
		{
			"bufferView":21,
			"componentType":5126,
			"count":566,
			"type":"VEC3"
		},
		{
			"bufferView":22,
			"componentType":5126,
			"count":566,
			"type":"VEC2"
		},
		{
			"bufferView":23,
			"componentType":5123,
			"count":1020,
			"type":"SCALAR"
		},
		{
			"bufferView":24,
			"componentType":5126,
			"count":362,
			"max":[
				0.4575536251068115,
				0.4300076961517334,
				0.056409358978271484
			],
			"min":[
				-0.47778916358947754,
				-0.6782782673835754,
				-0.05766010284423828
			],
			"type":"VEC3"
		},
		{
			"bufferView":25,
			"componentType":5126,
			"count":362,
			"type":"VEC3"
		},
		{
			"bufferView":26,
			"componentType":5126,
			"count":362,
			"type":"VEC2"
		},
		{
			"bufferView":27,
			"componentType":5123,
			"count":756,
			"type":"SCALAR"
		},
		{
			"bufferView":28,
			"componentType":5126,
			"count":748,
			"max":[
				0.28405094146728516,
				0.41967320442199707,
				0.4434584379196167
			],
			"min":[
				-0.3097412586212158,
				-0.6886127591133118,
				-0.4420759677886963
			],
			"type":"VEC3"
		},
		{
			"bufferView":29,
			"componentType":5126,
			"count":748,
			"type":"VEC3"
		},
		{
			"bufferView":30,
			"componentType":5126,
			"count":748,
			"type":"VEC2"
		},
		{
			"bufferView":31,
			"componentType":5123,
			"count":1290,
			"type":"SCALAR"
		},
		{
			"bufferView":32,
			"componentType":5126,
			"count":760,
			"max":[
				0.3957068920135498,
				0.8020983934402466,
				0.3454747796058655
			],
			"min":[
				-0.14142060279846191,
				-0.30618757009506226,
				-0.2687557339668274
			],
			"type":"VEC3"
		},
		{
			"bufferView":33,
			"componentType":5126,
			"count":760,
			"type":"VEC3"
		},
		{
			"bufferView":34,
			"componentType":5126,
			"count":760,
			"type":"VEC2"
		},
		{
			"bufferView":35,
			"componentType":5123,
			"count":1338,
			"type":"SCALAR"
		},
		{
			"bufferView":36,
			"componentType":5126,
			"count":2142,
			"max":[
				0.7883749008178711,
				1.3450982570648193,
				0.7788910865783691
			],
			"min":[
				-0.7742071151733398,
				-1.5494056940078735,
				-0.7963231801986694
			],
			"type":"VEC3"
		},
		{
			"bufferView":37,
			"componentType":5126,
			"count":2142,
			"type":"VEC3"
		},
		{
			"bufferView":38,
			"componentType":5126,
			"count":2142,
			"type":"VEC2"
		},
		{
			"bufferView":39,
			"componentType":5123,
			"count":5532,
			"type":"SCALAR"
		},
		{
			"bufferView":40,
			"componentType":5126,
			"count":318,
			"max":[
				0.26262688636779785,
				0.4702697992324829,
				0.3930796980857849
			],
			"min":[
				-0.25409507751464844,
				-0.6431223750114441,
				-0.46005064249038696
			],
			"type":"VEC3"
		},
		{
			"bufferView":41,
			"componentType":5126,
			"count":318,
			"type":"VEC3"
		},
		{
			"bufferView":42,
			"componentType":5126,
			"count":318,
			"type":"VEC2"
		},
		{
			"bufferView":43,
			"componentType":5123,
			"count":510,
			"type":"SCALAR"
		},
		{
			"bufferView":44,
			"componentType":5126,
			"count":1052,
			"max":[
				0.17197084426879883,
				0.4101206660270691,
				0.4037529230117798
			],
			"min":[
				-0.42356109619140625,
				-0.7032715082168579,
				-0.5826500654220581
			],
			"type":"VEC3"
		},
		{
			"bufferView":45,
			"componentType":5126,
			"count":1052,
			"type":"VEC3"
		},
		{
			"bufferView":46,
			"componentType":5126,
			"count":1052,
			"type":"VEC2"
		},
		{
			"bufferView":47,
			"componentType":5123,
			"count":1854,
			"type":"SCALAR"
		},
		{
			"bufferView":48,
			"componentType":5126,
			"count":842,
			"max":[
				0.7302885055541992,
				0.4100775718688965,
				0.23373651504516602
			],
			"min":[
				-0.3184685707092285,
				-0.7033146023750305,
				-0.06610774993896484
			],
			"type":"VEC3"
		},
		{
			"bufferView":49,
			"componentType":5126,
			"count":842,
			"type":"VEC3"
		},
		{
			"bufferView":50,
			"componentType":5126,
			"count":842,
			"type":"VEC2"
		},
		{
			"bufferView":51,
			"componentType":5123,
			"count":1572,
			"type":"SCALAR"
		},
		{
			"bufferView":52,
			"componentType":5126,
			"count":318,
			"max":[
				0.4194941520690918,
				0.4702698588371277,
				0.40361452102661133
			],
			"min":[
				-0.37147796154022217,
				-0.6431223154067993,
				-0.3563876152038574
			],
			"type":"VEC3"
		},
		{
			"bufferView":53,
			"componentType":5126,
			"count":318,
			"type":"VEC3"
		},
		{
			"bufferView":54,
			"componentType":5126,
			"count":318,
			"type":"VEC2"
		},
		{
			"bufferView":55,
			"componentType":5123,
			"count":510,
			"type":"SCALAR"
		},
		{
			"bufferView":56,
			"componentType":5126,
			"count":140,
			"max":[
				0.14627838134765625,
				0.5443021059036255,
				0.18119096755981445
			],
			"min":[
				-0.22972214221954346,
				-0.5690900683403015,
				-0.2201704978942871
			],
			"type":"VEC3"
		},
		{
			"bufferView":57,
			"componentType":5126,
			"count":140,
			"type":"VEC3"
		},
		{
			"bufferView":58,
			"componentType":5126,
			"count":140,
			"type":"VEC2"
		},
		{
			"bufferView":59,
			"componentType":5123,
			"count":258,
			"type":"SCALAR"
		},
		{
			"bufferView":60,
			"componentType":5126,
			"count":552,
			"max":[
				0.3312230110168457,
				0.4224746823310852,
				0.23184311389923096
			],
			"min":[
				-0.5574111938476562,
				-0.6909174919128418,
				-0.19242703914642334
			],
			"type":"VEC3"
		},
		{
			"bufferView":61,
			"componentType":5126,
			"count":552,
			"type":"VEC3"
		},
		{
			"bufferView":62,
			"componentType":5126,
			"count":552,
			"type":"VEC2"
		},
		{
			"bufferView":63,
			"componentType":5123,
			"count":1020,
			"type":"SCALAR"
		},
		{
			"bufferView":64,
			"componentType":5126,
			"count":360,
			"max":[
				0.430012971162796,
				0.42752569913864136,
				0.13770508766174316
			],
			"min":[
				-0.4529578387737274,
				-0.6858664751052856,
				-0.13321948051452637
			],
			"type":"VEC3"
		},
		{
			"bufferView":65,
			"componentType":5126,
			"count":360,
			"type":"VEC3"
		},
		{
			"bufferView":66,
			"componentType":5126,
			"count":360,
			"type":"VEC2"
		},
		{
			"bufferView":67,
			"componentType":5123,
			"count":750,
			"type":"SCALAR"
		},
		{
			"bufferView":68,
			"componentType":5126,
			"count":452,
			"max":[
				0.40700650215148926,
				0.43467581272125244,
				0.3731909990310669
			],
			"min":[
				-0.4083057641983032,
				-0.6787163615226746,
				-0.3770056962966919
			],
			"type":"VEC3"
		},
		{
			"bufferView":69,
			"componentType":5126,
			"count":452,
			"type":"VEC3"
		},
		{
			"bufferView":70,
			"componentType":5126,
			"count":452,
			"type":"VEC2"
		},
		{
			"bufferView":71,
			"componentType":5123,
			"count":666,
			"type":"SCALAR"
		},
		{
			"bufferView":72,
			"componentType":5126,
			"count":360,
			"max":[
				0.18571579456329346,
				0.42752575874328613,
				0.4153059124946594
			],
			"min":[
				-0.18629252910614014,
				-0.6858664155006409,
				-0.44224900007247925
			],
			"type":"VEC3"
		},
		{
			"bufferView":73,
			"componentType":5126,
			"count":360,
			"type":"VEC3"
		},
		{
			"bufferView":74,
			"componentType":5126,
			"count":360,
			"type":"VEC2"
		},
		{
			"bufferView":75,
			"componentType":5123,
			"count":750,
			"type":"SCALAR"
		},
		{
			"bufferView":76,
			"componentType":5126,
			"count":360,
			"max":[
				0.08599889278411865,
				0.42752575874328613,
				0.44080880284309387
			],
			"min":[
				-0.08249378204345703,
				-0.6858664155006409,
				-0.46195682883262634
			],
			"type":"VEC3"
		},
		{
			"bufferView":77,
			"componentType":5126,
			"count":360,
			"type":"VEC3"
		},
		{
			"bufferView":78,
			"componentType":5126,
			"count":360,
			"type":"VEC2"
		},
		{
			"bufferView":79,
			"componentType":5123,
			"count":750,
			"type":"SCALAR"
		}
	],
	"bufferViews":[
		{
			"buffer":0,
			"byteLength":5424,
			"byteOffset":0,
			"target":34962
		},
		{
			"buffer":0,
			"byteLength":5424,
			"byteOffset":5424,
			"target":34962
		},
		{
			"buffer":0,
			"byteLength":3616,
			"byteOffset":10848,
			"target":34962
		},
		{
			"buffer":0,
			"byteLength":1332,
			"byteOffset":14464,
			"target":34963
		},
		{
			"buffer":0,
			"byteLength":4320,
			"byteOffset":15796,
			"target":34962
		},
		{
			"buffer":0,
			"byteLength":4320,
			"byteOffset":20116,
			"target":34962
		},
		{
			"buffer":0,
			"byteLength":2880,
			"byteOffset":24436,
			"target":34962
		},
		{
			"buffer":0,
			"byteLength":1500,
			"byteOffset":27316,
			"target":34963
		},
		{
			"buffer":0,
			"byteLength":6624,
			"byteOffset":28816,
			"target":34962
		},
		{
			"buffer":0,
			"byteLength":6624,
			"byteOffset":35440,
			"target":34962
		},
		{
			"buffer":0,
			"byteLength":4416,
			"byteOffset":42064,
			"target":34962
		},
		{
			"buffer":0,
			"byteLength":2040,
			"byteOffset":46480,
			"target":34963
		},
		{
			"buffer":0,
			"byteLength":20304,
			"byteOffset":48520,
			"target":34962
		},
		{
			"buffer":0,
			"byteLength":20304,
			"byteOffset":68824,
			"target":34962
		},
		{
			"buffer":0,
			"byteLength":13536,
			"byteOffset":89128,
			"target":34962
		},
		{
			"buffer":0,
			"byteLength":5724,
			"byteOffset":102664,
			"target":34963
		},
		{
			"buffer":0,
			"byteLength":4488,
			"byteOffset":108388,
			"target":34962
		},
		{
			"buffer":0,
			"byteLength":4488,
			"byteOffset":112876,
			"target":34962
		},
		{
			"buffer":0,
			"byteLength":2992,
			"byteOffset":117364,
			"target":34962
		},
		{
			"buffer":0,
			"byteLength":1392,
			"byteOffset":120356,
			"target":34963
		},
		{
			"buffer":0,
			"byteLength":6792,
			"byteOffset":121748,
			"target":34962
		},
		{
			"buffer":0,
			"byteLength":6792,
			"byteOffset":128540,
			"target":34962
		},
		{
			"buffer":0,
			"byteLength":4528,
			"byteOffset":135332,
			"target":34962
		},
		{
			"buffer":0,
			"byteLength":2040,
			"byteOffset":139860,
			"target":34963
		},
		{
			"buffer":0,
			"byteLength":4344,
			"byteOffset":141900,
			"target":34962
		},
		{
			"buffer":0,
			"byteLength":4344,
			"byteOffset":146244,
			"target":34962
		},
		{
			"buffer":0,
			"byteLength":2896,
			"byteOffset":150588,
			"target":34962
		},
		{
			"buffer":0,
			"byteLength":1512,
			"byteOffset":153484,
			"target":34963
		},
		{
			"buffer":0,
			"byteLength":8976,
			"byteOffset":154996,
			"target":34962
		},
		{
			"buffer":0,
			"byteLength":8976,
			"byteOffset":163972,
			"target":34962
		},
		{
			"buffer":0,
			"byteLength":5984,
			"byteOffset":172948,
			"target":34962
		},
		{
			"buffer":0,
			"byteLength":2580,
			"byteOffset":178932,
			"target":34963
		},
		{
			"buffer":0,
			"byteLength":9120,
			"byteOffset":181512,
			"target":34962
		},
		{
			"buffer":0,
			"byteLength":9120,
			"byteOffset":190632,
			"target":34962
		},
		{
			"buffer":0,
			"byteLength":6080,
			"byteOffset":199752,
			"target":34962
		},
		{
			"buffer":0,
			"byteLength":2676,
			"byteOffset":205832,
			"target":34963
		},
		{
			"buffer":0,
			"byteLength":25704,
			"byteOffset":208508,
			"target":34962
		},
		{
			"buffer":0,
			"byteLength":25704,
			"byteOffset":234212,
			"target":34962
		},
		{
			"buffer":0,
			"byteLength":17136,
			"byteOffset":259916,
			"target":34962
		},
		{
			"buffer":0,
			"byteLength":11064,
			"byteOffset":277052,
			"target":34963
		},
		{
			"buffer":0,
			"byteLength":3816,
			"byteOffset":288116,
			"target":34962
		},
		{
			"buffer":0,
			"byteLength":3816,
			"byteOffset":291932,
			"target":34962
		},
		{
			"buffer":0,
			"byteLength":2544,
			"byteOffset":295748,
			"target":34962
		},
		{
			"buffer":0,
			"byteLength":1020,
			"byteOffset":298292,
			"target":34963
		},
		{
			"buffer":0,
			"byteLength":12624,
			"byteOffset":299312,
			"target":34962
		},
		{
			"buffer":0,
			"byteLength":12624,
			"byteOffset":311936,
			"target":34962
		},
		{
			"buffer":0,
			"byteLength":8416,
			"byteOffset":324560,
			"target":34962
		},
		{
			"buffer":0,
			"byteLength":3708,
			"byteOffset":332976,
			"target":34963
		},
		{
			"buffer":0,
			"byteLength":10104,
			"byteOffset":336684,
			"target":34962
		},
		{
			"buffer":0,
			"byteLength":10104,
			"byteOffset":346788,
			"target":34962
		},
		{
			"buffer":0,
			"byteLength":6736,
			"byteOffset":356892,
			"target":34962
		},
		{
			"buffer":0,
			"byteLength":3144,
			"byteOffset":363628,
			"target":34963
		},
		{
			"buffer":0,
			"byteLength":3816,
			"byteOffset":366772,
			"target":34962
		},
		{
			"buffer":0,
			"byteLength":3816,
			"byteOffset":370588,
			"target":34962
		},
		{
			"buffer":0,
			"byteLength":2544,
			"byteOffset":374404,
			"target":34962
		},
		{
			"buffer":0,
			"byteLength":1020,
			"byteOffset":376948,
			"target":34963
		},
		{
			"buffer":0,
			"byteLength":1680,
			"byteOffset":377968,
			"target":34962
		},
		{
			"buffer":0,
			"byteLength":1680,
			"byteOffset":379648,
			"target":34962
		},
		{
			"buffer":0,
			"byteLength":1120,
			"byteOffset":381328,
			"target":34962
		},
		{
			"buffer":0,
			"byteLength":516,
			"byteOffset":382448,
			"target":34963
		},
		{
			"buffer":0,
			"byteLength":6624,
			"byteOffset":382964,
			"target":34962
		},
		{
			"buffer":0,
			"byteLength":6624,
			"byteOffset":389588,
			"target":34962
		},
		{
			"buffer":0,
			"byteLength":4416,
			"byteOffset":396212,
			"target":34962
		},
		{
			"buffer":0,
			"byteLength":2040,
			"byteOffset":400628,
			"target":34963
		},
		{
			"buffer":0,
			"byteLength":4320,
			"byteOffset":402668,
			"target":34962
		},
		{
			"buffer":0,
			"byteLength":4320,
			"byteOffset":406988,
			"target":34962
		},
		{
			"buffer":0,
			"byteLength":2880,
			"byteOffset":411308,
			"target":34962
		},
		{
			"buffer":0,
			"byteLength":1500,
			"byteOffset":414188,
			"target":34963
		},
		{
			"buffer":0,
			"byteLength":5424,
			"byteOffset":415688,
			"target":34962
		},
		{
			"buffer":0,
			"byteLength":5424,
			"byteOffset":421112,
			"target":34962
		},
		{
			"buffer":0,
			"byteLength":3616,
			"byteOffset":426536,
			"target":34962
		},
		{
			"buffer":0,
			"byteLength":1332,
			"byteOffset":430152,
			"target":34963
		},
		{
			"buffer":0,
			"byteLength":4320,
			"byteOffset":431484,
			"target":34962
		},
		{
			"buffer":0,
			"byteLength":4320,
			"byteOffset":435804,
			"target":34962
		},
		{
			"buffer":0,
			"byteLength":2880,
			"byteOffset":440124,
			"target":34962
		},
		{
			"buffer":0,
			"byteLength":1500,
			"byteOffset":443004,
			"target":34963
		},
		{
			"buffer":0,
			"byteLength":4320,
			"byteOffset":444504,
			"target":34962
		},
		{
			"buffer":0,
			"byteLength":4320,
			"byteOffset":448824,
			"target":34962
		},
		{
			"buffer":0,
			"byteLength":2880,
			"byteOffset":453144,
			"target":34962
		},
		{
			"buffer":0,
			"byteLength":1500,
			"byteOffset":456024,
			"target":34963
		}
	],
	"samplers":[
		{
			"magFilter":9729,
			"minFilter":9987
		}
	],
	"buffers":[
		{
			"byteLength":457524,
			"uri":"new_main_room_walls.bin"
		}
	]
}
