{
	"asset":{
		"copyright":"tzbd",
		"generator":"Khronos glTF Blender I/O v4.5.49",
		"version":"2.0"
	},
	"extensionsUsed":[
		"KHR_materials_clearcoat"
	],
	"scene":0,
	"scenes":[
		{
			"name":"Scene",
			"nodes":[
				1
			]
		}
	],
	"nodes":[
		{
			"mesh":0,
			"name":"main_structure_floor-colonly",
			"translation":[
				0,
				0.002426944673061371,
				0
			]
		},
		{
			"children":[
				0
			],
			"mesh":1,
			"name":"main_structure_floor",
			"rotation":[
				0,
				0.060378383845090866,
				0,
				0.9981755614280701
			],
			"scale":[
				2.7684311866760254,
				2.7684311866760254,
				2.7684311866760254
			]
		}
	],
	"materials":[
		{
			"doubleSided":true,
			"name":"gradient-palette",
			"pbrMetallicRoughness":{
				"baseColorTexture":{
					"index":0
				},
				"metallicFactor":0
			}
		},
		{
			"doubleSided":true,
			"extensions":{
				"KHR_materials_clearcoat":{
					"clearcoatFactor":0.23990498483181
				}
			},
			"name":"baked_floor",
			"pbrMetallicRoughness":{
				"baseColorTexture":{
					"index":1
				},
				"metallicFactor":0
			}
		}
	],
	"meshes":[
		{
			"name":"main_structure_floor_cm",
			"primitives":[
				{
					"attributes":{
						"POSITION":0,
						"NORMAL":1,
						"TEXCOORD_0":2
					},
					"indices":3
				}
			]
		},
		{
			"name":"main_structure_floor_mesh",
			"primitives":[
				{
					"attributes":{
						"POSITION":4,
						"NORMAL":5,
						"TEXCOORD_0":6
					},
					"indices":7,
					"material":0
				},
				{
					"attributes":{
						"POSITION":8,
						"NORMAL":9,
						"TEXCOORD_0":10
					},
					"indices":11,
					"material":1
				}
			]
		}
	],
	"textures":[
		{
			"sampler":0,
			"source":0
		},
		{
			"sampler":0,
			"source":1
		}
	],
	"images":[
		{
			"mimeType":"image/png",
			"name":"small-gradient-palette",
			"uri":"small-gradient-palette.png"
		},
		{
			"mimeType":"image/png",
			"name":"floor_tex",
			"uri":"floor_tex.png"
		}
	],
	"accessors":[
		{
			"bufferView":0,
			"componentType":5126,
			"count":164,
			"max":[
				4.058253288269043,
				0.6076463460922241,
				2.252790927886963
			],
			"min":[
				-1.2424046993255615,
				-0.02974616549909115,
				-2.4914534091949463
			],
			"type":"VEC3"
		},
		{
			"bufferView":1,
			"componentType":5126,
			"count":164,
			"type":"VEC3"
		},
		{
			"bufferView":2,
			"componentType":5126,
			"count":164,
			"type":"VEC2"
		},
		{
			"bufferView":3,
			"componentType":5123,
			"count":348,
			"type":"SCALAR"
		},
		{
			"bufferView":4,
			"componentType":5126,
			"count":917,
			"max":[
				4.058253288269043,
				0.6006724238395691,
				2.252790927886963
			],
			"min":[
				-1.2424046993255615,
				-0.03576882556080818,
				-2.4914534091949463
			],
			"type":"VEC3"
		},
		{
			"bufferView":5,
			"componentType":5126,
			"count":917,
			"type":"VEC3"
		},
		{
			"bufferView":6,
			"componentType":5126,
			"count":917,
			"type":"VEC2"
		},
		{
			"bufferView":7,
			"componentType":5123,
			"count":1629,
			"type":"SCALAR"
		},
		{
			"bufferView":8,
			"componentType":5126,
			"count":213,
			"max":[
				4.058253288269043,
				0.36121538281440735,
				2.252790927886963
			],
			"min":[
				-1.2424046993255615,
				-0.02974616549909115,
				-2.4914534091949463
			],
			"type":"VEC3"
		},
		{
			"bufferView":9,
			"componentType":5126,
			"count":213,
			"type":"VEC3"
		},
		{
			"bufferView":10,
			"componentType":5126,
			"count":213,
			"type":"VEC2"
		},
		{
			"bufferView":11,
			"componentType":5123,
			"count":369,
			"type":"SCALAR"
		}
	],
	"bufferViews":[
		{
			"buffer":0,
			"byteLength":1968,
			"byteOffset":0,
			"target":34962
		},
		{
			"buffer":0,
			"byteLength":1968,
			"byteOffset":1968,
			"target":34962
		},
		{
			"buffer":0,
			"byteLength":1312,
			"byteOffset":3936,
			"target":34962
		},
		{
			"buffer":0,
			"byteLength":696,
			"byteOffset":5248,
			"target":34963
		},
		{
			"buffer":0,
			"byteLength":11004,
			"byteOffset":5944,
			"target":34962
		},
		{
			"buffer":0,
			"byteLength":11004,
			"byteOffset":16948,
			"target":34962
		},
		{
			"buffer":0,
			"byteLength":7336,
			"byteOffset":27952,
			"target":34962
		},
		{
			"buffer":0,
			"byteLength":3258,
			"byteOffset":35288,
			"target":34963
		},
		{
			"buffer":0,
			"byteLength":2556,
			"byteOffset":38548,
			"target":34962
		},
		{
			"buffer":0,
			"byteLength":2556,
			"byteOffset":41104,
			"target":34962
		},
		{
			"buffer":0,
			"byteLength":1704,
			"byteOffset":43660,
			"target":34962
		},
		{
			"buffer":0,
			"byteLength":738,
			"byteOffset":45364,
			"target":34963
		}
	],
	"samplers":[
		{
			"magFilter":9729,
			"minFilter":9987
		}
	],
	"buffers":[
		{
			"byteLength":46104,
			"uri":"new_main_room_floor_and_coll.bin"
		}
	]
}
