{
	"asset":{
		"copyright":"tzbd",
		"generator":"Khronos glTF Blender I/O v5.0.21",
		"version":"2.0"
	},
	"scene":0,
	"scenes":[
		{
			"name":"Scene",
			"nodes":[
				0,
				1,
				2
			]
		}
	],
	"nodes":[
		{
			"mesh":0,
			"name":"candles-colonly"
		},
		{
			"mesh":1,
			"name":"candles"
		},
		{
			"mesh":2,
			"name":"plate",
			"scale":[
				0.2707716226577759,
				0.5,
				0.2707716226577759
			]
		}
	],
	"materials":[
		{
			"doubleSided":true,
			"name":"gradient-palette",
			"pbrMetallicRoughness":{
				"baseColorTexture":{
					"index":0
				},
				"metallicFactor":0,
				"roughnessFactor":0.5
			}
		}
	],
	"meshes":[
		{
			"name":"Circle.010",
			"primitives":[
				{
					"attributes":{
						"POSITION":0,
						"NORMAL":1,
						"TEXCOORD_0":2
					},
					"indices":3
				}
			]
		},
		{
			"name":"Cylinder",
			"primitives":[
				{
					"attributes":{
						"POSITION":4,
						"NORMAL":5,
						"TEXCOORD_0":6
					},
					"indices":7,
					"material":0
				}
			]
		},
		{
			"name":"plate",
			"primitives":[
				{
					"attributes":{
						"POSITION":8,
						"NORMAL":9,
						"TEXCOORD_0":10
					},
					"indices":11,
					"material":0
				}
			]
		}
	],
	"textures":[
		{
			"sampler":0,
			"source":0
		}
	],
	"images":[
		{
			"mimeType":"image/png",
			"name":"small-gradient-palette",
			"uri":"small-gradient-palette.png"
		}
	],
	"accessors":[
		{
			"bufferView":0,
			"componentType":5126,
			"count":96,
			"max":[
				0.19487489759922028,
				0.4544011354446411,
				0.19487489759922028
			],
			"min":[
				-0.19487489759922028,
				-0.01042189635336399,
				-0.19487489759922028
			],
			"type":"VEC3"
		},
		{
			"bufferView":1,
			"componentType":5126,
			"count":96,
			"type":"VEC3"
		},
		{
			"bufferView":2,
			"componentType":5126,
			"count":96,
			"type":"VEC2"
		},
		{
			"bufferView":3,
			"componentType":5123,
			"count":180,
			"type":"SCALAR"
		},
		{
			"bufferView":4,
			"componentType":5126,
			"count":540,
			"max":[
				0.14398138225078583,
				0.43998539447784424,
				0.14982923865318298
			],
			"min":[
				-0.10862387716770172,
				4.977383838422611e-08,
				-0.10922139137983322
			],
			"type":"VEC3"
		},
		{
			"bufferView":5,
			"componentType":5126,
			"count":540,
			"type":"VEC3"
		},
		{
			"bufferView":6,
			"componentType":5126,
			"count":540,
			"type":"VEC2"
		},
		{
			"bufferView":7,
			"componentType":5123,
			"count":3168,
			"type":"SCALAR"
		},
		{
			"bufferView":8,
			"componentType":5126,
			"count":768,
			"max":[
				1.0007784366607666,
				0.20784686505794525,
				1.0007784366607666
			],
			"min":[
				-1.0007784366607666,
				-0.006500044837594032,
				-1.0007784366607666
			],
			"type":"VEC3"
		},
		{
			"bufferView":9,
			"componentType":5126,
			"count":768,
			"type":"VEC3"
		},
		{
			"bufferView":10,
			"componentType":5126,
			"count":768,
			"type":"VEC2"
		},
		{
			"bufferView":11,
			"componentType":5123,
			"count":4596,
			"type":"SCALAR"
		}
	],
	"bufferViews":[
		{
			"buffer":0,
			"byteLength":1152,
			"byteOffset":0,
			"target":34962
		},
		{
			"buffer":0,
			"byteLength":1152,
			"byteOffset":1152,
			"target":34962
		},
		{
			"buffer":0,
			"byteLength":768,
			"byteOffset":2304,
			"target":34962
		},
		{
			"buffer":0,
			"byteLength":360,
			"byteOffset":3072,
			"target":34963
		},
		{
			"buffer":0,
			"byteLength":6480,
			"byteOffset":3432,
			"target":34962
		},
		{
			"buffer":0,
			"byteLength":6480,
			"byteOffset":9912,
			"target":34962
		},
		{
			"buffer":0,
			"byteLength":4320,
			"byteOffset":16392,
			"target":34962
		},
		{
			"buffer":0,
			"byteLength":6336,
			"byteOffset":20712,
			"target":34963
		},
		{
			"buffer":0,
			"byteLength":9216,
			"byteOffset":27048,
			"target":34962
		},
		{
			"buffer":0,
			"byteLength":9216,
			"byteOffset":36264,
			"target":34962
		},
		{
			"buffer":0,
			"byteLength":6144,
			"byteOffset":45480,
			"target":34962
		},
		{
			"buffer":0,
			"byteLength":9192,
			"byteOffset":51624,
			"target":34963
		}
	],
	"samplers":[
		{
			"magFilter":9729,
			"minFilter":9987
		}
	],
	"buffers":[
		{
			"byteLength":60816,
			"uri":"candles.bin"
		}
	]
}
