{
	"asset":{
		"copyright":"tzbd",
		"generator":"Khronos glTF Blender I/O v5.0.21",
		"version":"2.0"
	},
	"scene":0,
	"scenes":[
		{
			"name":"Scene",
			"nodes":[
				0,
				1,
				2
			]
		}
	],
	"nodes":[
		{
			"mesh":0,
			"name":"heart-colonly"
		},
		{
			"mesh":1,
			"name":"heart",
			"rotation":[
				0.054333239793777466,
				0,
				0,
				0.9985228776931763
			],
			"scale":[
				0.3378216326236725,
				0.6238128542900085,
				0.3378216326236725
			]
		},
		{
			"mesh":2,
			"name":"plate",
			"scale":[
				0.2707716226577759,
				0.5,
				0.2707716226577759
			]
		}
	],
	"materials":[
		{
			"doubleSided":true,
			"name":"gradient-palette",
			"pbrMetallicRoughness":{
				"baseColorTexture":{
					"index":0
				},
				"metallicFactor":0,
				"roughnessFactor":0.5
			}
		}
	],
	"meshes":[
		{
			"name":"Circle.006",
			"primitives":[
				{
					"attributes":{
						"POSITION":0,
						"NORMAL":1,
						"TEXCOORD_0":2
					},
					"indices":3
				}
			]
		},
		{
			"name":"heart",
			"primitives":[
				{
					"attributes":{
						"POSITION":4,
						"NORMAL":5,
						"TEXCOORD_0":6
					},
					"indices":7,
					"material":0
				}
			]
		},
		{
			"name":"plate",
			"primitives":[
				{
					"attributes":{
						"POSITION":8,
						"NORMAL":9,
						"TEXCOORD_0":10
					},
					"indices":11,
					"material":0
				}
			]
		}
	],
	"textures":[
		{
			"sampler":0,
			"source":0
		}
	],
	"images":[
		{
			"mimeType":"image/png",
			"name":"small-gradient-palette",
			"uri":"small-gradient-palette.png"
		}
	],
	"accessors":[
		{
			"bufferView":0,
			"componentType":5126,
			"count":96,
			"max":[
				0.2800374925136566,
				0.1848040223121643,
				0.2800374925136566
			],
			"min":[
				-0.2800374925136566,
				-0.014976386912167072,
				-0.2800374925136566
			],
			"type":"VEC3"
		},
		{
			"bufferView":1,
			"componentType":5126,
			"count":96,
			"type":"VEC3"
		},
		{
			"bufferView":2,
			"componentType":5126,
			"count":96,
			"type":"VEC2"
		},
		{
			"bufferView":3,
			"componentType":5123,
			"count":180,
			"type":"SCALAR"
		},
		{
			"bufferView":4,
			"componentType":5126,
			"count":4275,
			"max":[
				0.5826603770256042,
				0.36050140857696533,
				0.6526879668235779
			],
			"min":[
				-0.4232332706451416,
				0.006117925047874451,
				-0.8271448612213135
			],
			"type":"VEC3"
		},
		{
			"bufferView":5,
			"componentType":5126,
			"count":4275,
			"type":"VEC3"
		},
		{
			"bufferView":6,
			"componentType":5126,
			"count":4275,
			"type":"VEC2"
		},
		{
			"bufferView":7,
			"componentType":5123,
			"count":25650,
			"type":"SCALAR"
		},
		{
			"bufferView":8,
			"componentType":5126,
			"count":768,
			"max":[
				1.0007784366607666,
				0.20784686505794525,
				1.0007784366607666
			],
			"min":[
				-1.0007784366607666,
				-0.006500044837594032,
				-1.0007784366607666
			],
			"type":"VEC3"
		},
		{
			"bufferView":9,
			"componentType":5126,
			"count":768,
			"type":"VEC3"
		},
		{
			"bufferView":10,
			"componentType":5126,
			"count":768,
			"type":"VEC2"
		},
		{
			"bufferView":11,
			"componentType":5123,
			"count":4596,
			"type":"SCALAR"
		}
	],
	"bufferViews":[
		{
			"buffer":0,
			"byteLength":1152,
			"byteOffset":0,
			"target":34962
		},
		{
			"buffer":0,
			"byteLength":1152,
			"byteOffset":1152,
			"target":34962
		},
		{
			"buffer":0,
			"byteLength":768,
			"byteOffset":2304,
			"target":34962
		},
		{
			"buffer":0,
			"byteLength":360,
			"byteOffset":3072,
			"target":34963
		},
		{
			"buffer":0,
			"byteLength":51300,
			"byteOffset":3432,
			"target":34962
		},
		{
			"buffer":0,
			"byteLength":51300,
			"byteOffset":54732,
			"target":34962
		},
		{
			"buffer":0,
			"byteLength":34200,
			"byteOffset":106032,
			"target":34962
		},
		{
			"buffer":0,
			"byteLength":51300,
			"byteOffset":140232,
			"target":34963
		},
		{
			"buffer":0,
			"byteLength":9216,
			"byteOffset":191532,
			"target":34962
		},
		{
			"buffer":0,
			"byteLength":9216,
			"byteOffset":200748,
			"target":34962
		},
		{
			"buffer":0,
			"byteLength":6144,
			"byteOffset":209964,
			"target":34962
		},
		{
			"buffer":0,
			"byteLength":9192,
			"byteOffset":216108,
			"target":34963
		}
	],
	"samplers":[
		{
			"magFilter":9729,
			"minFilter":9987
		}
	],
	"buffers":[
		{
			"byteLength":225300,
			"uri":"heart.bin"
		}
	]
}
