{
	"asset":{
		"copyright":"tzbd",
		"generator":"Khronos glTF Blender I/O v5.0.21",
		"version":"2.0"
	},
	"scene":0,
	"scenes":[
		{
			"name":"Scene",
			"nodes":[
				0,
				1,
				2
			]
		}
	],
	"nodes":[
		{
			"mesh":0,
			"name":"nails-colonly"
		},
		{
			"mesh":1,
			"name":"nails"
		},
		{
			"mesh":2,
			"name":"plate",
			"scale":[
				0.2707716226577759,
				0.5,
				0.2707716226577759
			]
		}
	],
	"materials":[
		{
			"doubleSided":true,
			"name":"gradient-palette",
			"pbrMetallicRoughness":{
				"baseColorTexture":{
					"index":0
				},
				"metallicFactor":0,
				"roughnessFactor":0.5
			}
		}
	],
	"meshes":[
		{
			"name":"Circle.011",
			"primitives":[
				{
					"attributes":{
						"POSITION":0,
						"NORMAL":1,
						"TEXCOORD_0":2
					},
					"indices":3
				}
			]
		},
		{
			"name":"nails",
			"primitives":[
				{
					"attributes":{
						"POSITION":4,
						"NORMAL":5,
						"TEXCOORD_0":6
					},
					"indices":7,
					"material":0
				}
			]
		},
		{
			"name":"plate",
			"primitives":[
				{
					"attributes":{
						"POSITION":8,
						"NORMAL":9,
						"TEXCOORD_0":10
					},
					"indices":11,
					"material":0
				}
			]
		}
	],
	"textures":[
		{
			"sampler":0,
			"source":0
		}
	],
	"images":[
		{
			"mimeType":"image/png",
			"name":"small-gradient-palette",
			"uri":"small-gradient-palette.png"
		}
	],
	"accessors":[
		{
			"bufferView":0,
			"componentType":5126,
			"count":96,
			"max":[
				0.3028084635734558,
				0.23655706644058228,
				0.3028084635734558
			],
			"min":[
				-0.3028084635734558,
				-0.0161941759288311,
				-0.3028084635734558
			],
			"type":"VEC3"
		},
		{
			"bufferView":1,
			"componentType":5126,
			"count":96,
			"type":"VEC3"
		},
		{
			"bufferView":2,
			"componentType":5126,
			"count":96,
			"type":"VEC2"
		},
		{
			"bufferView":3,
			"componentType":5123,
			"count":180,
			"type":"SCALAR"
		},
		{
			"bufferView":4,
			"componentType":5126,
			"count":1116,
			"max":[
				0.29498031735420227,
				0.22562441229820251,
				0.3106791377067566
			],
			"min":[
				-0.2900214195251465,
				-0.0022988170385360718,
				-0.32151463627815247
			],
			"type":"VEC3"
		},
		{
			"bufferView":5,
			"componentType":5126,
			"count":1116,
			"type":"VEC3"
		},
		{
			"bufferView":6,
			"componentType":5126,
			"count":1116,
			"type":"VEC2"
		},
		{
			"bufferView":7,
			"componentType":5123,
			"count":6324,
			"type":"SCALAR"
		},
		{
			"bufferView":8,
			"componentType":5126,
			"count":768,
			"max":[
				1.0007784366607666,
				0.20784686505794525,
				1.0007784366607666
			],
			"min":[
				-1.0007784366607666,
				-0.006500044837594032,
				-1.0007784366607666
			],
			"type":"VEC3"
		},
		{
			"bufferView":9,
			"componentType":5126,
			"count":768,
			"type":"VEC3"
		},
		{
			"bufferView":10,
			"componentType":5126,
			"count":768,
			"type":"VEC2"
		},
		{
			"bufferView":11,
			"componentType":5123,
			"count":4596,
			"type":"SCALAR"
		}
	],
	"bufferViews":[
		{
			"buffer":0,
			"byteLength":1152,
			"byteOffset":0,
			"target":34962
		},
		{
			"buffer":0,
			"byteLength":1152,
			"byteOffset":1152,
			"target":34962
		},
		{
			"buffer":0,
			"byteLength":768,
			"byteOffset":2304,
			"target":34962
		},
		{
			"buffer":0,
			"byteLength":360,
			"byteOffset":3072,
			"target":34963
		},
		{
			"buffer":0,
			"byteLength":13392,
			"byteOffset":3432,
			"target":34962
		},
		{
			"buffer":0,
			"byteLength":13392,
			"byteOffset":16824,
			"target":34962
		},
		{
			"buffer":0,
			"byteLength":8928,
			"byteOffset":30216,
			"target":34962
		},
		{
			"buffer":0,
			"byteLength":12648,
			"byteOffset":39144,
			"target":34963
		},
		{
			"buffer":0,
			"byteLength":9216,
			"byteOffset":51792,
			"target":34962
		},
		{
			"buffer":0,
			"byteLength":9216,
			"byteOffset":61008,
			"target":34962
		},
		{
			"buffer":0,
			"byteLength":6144,
			"byteOffset":70224,
			"target":34962
		},
		{
			"buffer":0,
			"byteLength":9192,
			"byteOffset":76368,
			"target":34963
		}
	],
	"samplers":[
		{
			"magFilter":9729,
			"minFilter":9987
		}
	],
	"buffers":[
		{
			"byteLength":85560,
			"uri":"nails.bin"
		}
	]
}
