{
	"asset":{
		"copyright":"tzbd",
		"generator":"Khronos glTF Blender I/O v5.0.21",
		"version":"2.0"
	},
	"scene":0,
	"scenes":[
		{
			"name":"Scene",
			"nodes":[
				0,
				1,
				2
			]
		}
	],
	"nodes":[
		{
			"mesh":0,
			"name":"salt-colonly"
		},
		{
			"mesh":1,
			"name":"salt"
		},
		{
			"mesh":2,
			"name":"plate",
			"scale":[
				0.2707716226577759,
				0.5,
				0.2707716226577759
			]
		}
	],
	"materials":[
		{
			"doubleSided":true,
			"name":"gradient-palette",
			"pbrMetallicRoughness":{
				"baseColorTexture":{
					"index":0
				},
				"metallicFactor":0,
				"roughnessFactor":0.5
			}
		}
	],
	"meshes":[
		{
			"name":"salt-cm",
			"primitives":[
				{
					"attributes":{
						"POSITION":0,
						"NORMAL":1,
						"TEXCOORD_0":2
					},
					"indices":3
				}
			]
		},
		{
			"name":"salt",
			"primitives":[
				{
					"attributes":{
						"POSITION":4,
						"NORMAL":5,
						"TEXCOORD_0":6
					},
					"indices":7,
					"material":0
				}
			]
		},
		{
			"name":"plate",
			"primitives":[
				{
					"attributes":{
						"POSITION":8,
						"NORMAL":9,
						"TEXCOORD_0":10
					},
					"indices":11,
					"material":0
				}
			]
		}
	],
	"textures":[
		{
			"sampler":0,
			"source":0
		}
	],
	"images":[
		{
			"mimeType":"image/png",
			"name":"small-gradient-palette",
			"uri":"small-gradient-palette.png"
		}
	],
	"accessors":[
		{
			"bufferView":0,
			"componentType":5126,
			"count":96,
			"max":[
				0.2800374925136566,
				0.18480408191680908,
				0.2800374925136566
			],
			"min":[
				-0.2800374925136566,
				-0.014976386912167072,
				-0.2800374925136566
			],
			"type":"VEC3"
		},
		{
			"bufferView":1,
			"componentType":5126,
			"count":96,
			"type":"VEC3"
		},
		{
			"bufferView":2,
			"componentType":5126,
			"count":96,
			"type":"VEC2"
		},
		{
			"bufferView":3,
			"componentType":5123,
			"count":180,
			"type":"SCALAR"
		},
		{
			"bufferView":4,
			"componentType":5126,
			"count":257,
			"max":[
				0.18448911607265472,
				0.174379363656044,
				0.18448902666568756
			],
			"min":[
				-0.18448898196220398,
				0.027008390054106712,
				-0.1844891756772995
			],
			"type":"VEC3"
		},
		{
			"bufferView":5,
			"componentType":5126,
			"count":257,
			"type":"VEC3"
		},
		{
			"bufferView":6,
			"componentType":5126,
			"count":257,
			"type":"VEC2"
		},
		{
			"bufferView":7,
			"componentType":5123,
			"count":1530,
			"type":"SCALAR"
		},
		{
			"bufferView":8,
			"componentType":5126,
			"count":768,
			"max":[
				1.0007784366607666,
				0.20784686505794525,
				1.0007784366607666
			],
			"min":[
				-1.0007784366607666,
				-0.006500044837594032,
				-1.0007784366607666
			],
			"type":"VEC3"
		},
		{
			"bufferView":9,
			"componentType":5126,
			"count":768,
			"type":"VEC3"
		},
		{
			"bufferView":10,
			"componentType":5126,
			"count":768,
			"type":"VEC2"
		},
		{
			"bufferView":11,
			"componentType":5123,
			"count":4596,
			"type":"SCALAR"
		}
	],
	"bufferViews":[
		{
			"buffer":0,
			"byteLength":1152,
			"byteOffset":0,
			"target":34962
		},
		{
			"buffer":0,
			"byteLength":1152,
			"byteOffset":1152,
			"target":34962
		},
		{
			"buffer":0,
			"byteLength":768,
			"byteOffset":2304,
			"target":34962
		},
		{
			"buffer":0,
			"byteLength":360,
			"byteOffset":3072,
			"target":34963
		},
		{
			"buffer":0,
			"byteLength":3084,
			"byteOffset":3432,
			"target":34962
		},
		{
			"buffer":0,
			"byteLength":3084,
			"byteOffset":6516,
			"target":34962
		},
		{
			"buffer":0,
			"byteLength":2056,
			"byteOffset":9600,
			"target":34962
		},
		{
			"buffer":0,
			"byteLength":3060,
			"byteOffset":11656,
			"target":34963
		},
		{
			"buffer":0,
			"byteLength":9216,
			"byteOffset":14716,
			"target":34962
		},
		{
			"buffer":0,
			"byteLength":9216,
			"byteOffset":23932,
			"target":34962
		},
		{
			"buffer":0,
			"byteLength":6144,
			"byteOffset":33148,
			"target":34962
		},
		{
			"buffer":0,
			"byteLength":9192,
			"byteOffset":39292,
			"target":34963
		}
	],
	"samplers":[
		{
			"magFilter":9729,
			"minFilter":9987
		}
	],
	"buffers":[
		{
			"byteLength":48484,
			"uri":"salt.bin"
		}
	]
}
